<mxfile host="65bd71144e">
    <diagram id="ARj6SyH5rF0tKpnl3x5v" name="Page-1">
        <mxGraphModel dx="876" dy="1717" grid="1" gridSize="10" guides="1" tooltips="1" connect="1" arrows="1" fold="1" page="1" pageScale="1" pageWidth="850" pageHeight="1100" math="0" shadow="0">
            <root>
                <mxCell id="0"/>
                <mxCell id="1" parent="0"/>
                <mxCell id="2" value=" Activity Diagram Kelola Data Kriteria" style="shape=table;childLayout=tableLayout;startSize=40;collapsible=0;recursiveResize=0;expand=0;strokeColor=default;align=left;verticalAlign=middle;fontFamily=Helvetica;fontSize=12;fontColor=default;fillColor=none;fontStyle=1;strokeWidth=3;" parent="1" vertex="1">
                    <mxGeometry x="25" width="800" height="950" as="geometry"/>
                </mxCell>
                <mxCell id="3" value="" style="shape=tableRow;horizontal=0;swimlaneHead=0;swimlaneBody=0;top=0;left=0;strokeColor=inherit;bottom=0;right=0;dropTarget=0;fontStyle=1;fillColor=none;points=[[0,0.5],[1,0.5]];portConstraint=eastwest;startSize=40;collapsible=0;recursiveResize=0;expand=0;align=center;verticalAlign=middle;fontFamily=Helvetica;fontSize=12;fontColor=default;strokeWidth=3;" parent="2" vertex="1">
                    <mxGeometry y="40" width="800" height="910" as="geometry"/>
                </mxCell>
                <mxCell id="4" value="USER    " style="swimlane;swimlaneHead=0;swimlaneBody=0;fontStyle=1;strokeColor=inherit;connectable=0;fillColor=none;startSize=40;collapsible=0;recursiveResize=0;expand=0;align=center;verticalAlign=middle;fontFamily=Helvetica;fontSize=12;fontColor=default;strokeWidth=3;" parent="3" vertex="1">
                    <mxGeometry x="40" width="380" height="910" as="geometry">
                        <mxRectangle width="380" height="910" as="alternateBounds"/>
                    </mxGeometry>
                </mxCell>
                <mxCell id="5" style="edgeStyle=none;html=1;exitX=0.5;exitY=1;exitDx=0;exitDy=0;fontFamily=Helvetica;fontSize=12;fontColor=default;strokeWidth=3;fontStyle=1" parent="4" source="6" target="7" edge="1">
                    <mxGeometry relative="1" as="geometry"/>
                </mxCell>
                <mxCell id="6" value="" style="ellipse;whiteSpace=wrap;html=1;aspect=fixed;strokeColor=default;align=center;verticalAlign=middle;fontFamily=Helvetica;fontSize=12;fontColor=default;fillColor=light-dark(#464444, #ededed);strokeWidth=3;fontStyle=1" parent="4" vertex="1">
                    <mxGeometry x="130" y="50" width="20" height="20" as="geometry"/>
                </mxCell>
                <mxCell id="7" value="Memilih Menu Kriteria" style="rounded=1;whiteSpace=wrap;html=1;strokeColor=default;align=center;verticalAlign=middle;fontFamily=Helvetica;fontSize=12;fontColor=default;fillColor=none;strokeWidth=3;fontStyle=1" parent="4" vertex="1">
                    <mxGeometry x="40" y="120" width="200" height="80" as="geometry"/>
                </mxCell>
                <mxCell id="8" value="Tambah" style="rounded=1;whiteSpace=wrap;html=1;strokeColor=default;align=center;verticalAlign=middle;fontFamily=Helvetica;fontSize=12;fontColor=default;fillColor=none;strokeWidth=3;fontStyle=1" parent="4" vertex="1">
                    <mxGeometry x="15" y="390" width="90" height="20" as="geometry"/>
                </mxCell>
                <mxCell id="9" value="mengisi form kriteria" style="rounded=1;whiteSpace=wrap;html=1;strokeColor=default;align=center;verticalAlign=middle;fontFamily=Helvetica;fontSize=12;fontColor=default;fillColor=none;strokeWidth=3;fontStyle=1" parent="4" vertex="1">
                    <mxGeometry x="30" y="660" width="200" height="80" as="geometry"/>
                </mxCell>
                <mxCell id="10" value="" style="endArrow=classic;html=1;fontFamily=Helvetica;fontSize=12;fontColor=default;entryX=0;entryY=0.5;entryDx=0;entryDy=0;strokeWidth=3;fontStyle=1" parent="4" target="27" edge="1">
                    <mxGeometry width="50" height="50" relative="1" as="geometry">
                        <mxPoint x="240" y="159.5" as="sourcePoint"/>
                        <mxPoint x="360" y="159.5" as="targetPoint"/>
                    </mxGeometry>
                </mxCell>
                <mxCell id="11" value="&lt;div&gt;&lt;div&gt;&lt;br&gt;&lt;/div&gt;&lt;/div&gt;" style="rhombus;whiteSpace=wrap;html=1;strokeColor=default;align=center;verticalAlign=middle;fontFamily=Helvetica;fontSize=12;fontColor=default;fillColor=default;strokeWidth=3;fontStyle=1" parent="4" vertex="1">
                    <mxGeometry x="120" y="240" width="80" height="60" as="geometry"/>
                </mxCell>
                <mxCell id="12" value="Edit" style="rounded=1;whiteSpace=wrap;html=1;strokeColor=default;align=center;verticalAlign=middle;fontFamily=Helvetica;fontSize=12;fontColor=default;fillColor=none;strokeWidth=3;fontStyle=1" parent="4" vertex="1">
                    <mxGeometry x="120" y="390" width="90" height="20" as="geometry"/>
                </mxCell>
                <mxCell id="13" value="delete" style="rounded=1;whiteSpace=wrap;html=1;strokeColor=default;align=center;verticalAlign=middle;fontFamily=Helvetica;fontSize=12;fontColor=default;fillColor=none;strokeWidth=3;fontStyle=1" parent="4" vertex="1">
                    <mxGeometry x="270" y="260" width="90" height="20" as="geometry"/>
                </mxCell>
                <mxCell id="14" value="&lt;div&gt;&lt;div&gt;&lt;br&gt;&lt;/div&gt;&lt;/div&gt;" style="rhombus;whiteSpace=wrap;html=1;strokeColor=default;align=center;verticalAlign=middle;fontFamily=Helvetica;fontSize=12;fontColor=default;fillColor=default;strokeWidth=3;fontStyle=1" parent="4" vertex="1">
                    <mxGeometry x="120" y="475" width="80" height="70" as="geometry"/>
                </mxCell>
                <mxCell id="15" value="" style="edgeStyle=elbowEdgeStyle;elbow=vertical;endArrow=classic;html=1;curved=0;rounded=0;endSize=8;startSize=8;entryX=0.5;entryY=0;entryDx=0;entryDy=0;exitX=0;exitY=0.5;exitDx=0;exitDy=0;strokeWidth=3;fontStyle=1;fontSize=12;" parent="4" source="11" target="8" edge="1">
                    <mxGeometry width="50" height="50" relative="1" as="geometry">
                        <mxPoint x="50" y="280" as="sourcePoint"/>
                        <mxPoint x="100" y="230" as="targetPoint"/>
                        <Array as="points">
                            <mxPoint x="70" y="270"/>
                        </Array>
                    </mxGeometry>
                </mxCell>
                <mxCell id="16" value="" style="endArrow=classic;html=1;entryX=0;entryY=0.5;entryDx=0;entryDy=0;strokeWidth=3;fontStyle=1;fontSize=12;" parent="4" target="13" edge="1">
                    <mxGeometry width="50" height="50" relative="1" as="geometry">
                        <mxPoint x="200" y="270" as="sourcePoint"/>
                        <mxPoint x="250" y="220" as="targetPoint"/>
                    </mxGeometry>
                </mxCell>
                <mxCell id="17" value="" style="edgeStyle=elbowEdgeStyle;elbow=horizontal;endArrow=classic;html=1;curved=0;rounded=0;endSize=8;startSize=8;fontFamily=Helvetica;fontSize=12;fontColor=default;entryX=0;entryY=0.5;entryDx=0;entryDy=0;exitX=0.5;exitY=1;exitDx=0;exitDy=0;strokeWidth=3;fontStyle=1" parent="4" source="8" target="14" edge="1">
                    <mxGeometry width="50" height="50" relative="1" as="geometry">
                        <mxPoint x="200" y="740" as="sourcePoint"/>
                        <mxPoint x="200" y="460" as="targetPoint"/>
                        <Array as="points">
                            <mxPoint x="60" y="460"/>
                        </Array>
                    </mxGeometry>
                </mxCell>
                <mxCell id="18" value="[menu tambah kriteria]" style="text;html=1;align=center;verticalAlign=middle;resizable=0;points=[];autosize=1;strokeColor=none;fillColor=none;strokeWidth=3;fontStyle=1;fontSize=12;" parent="4" vertex="1">
                    <mxGeometry x="2" y="230" width="140" height="30" as="geometry"/>
                </mxCell>
                <mxCell id="19" value="[menu update kriteria]" style="text;html=1;align=center;verticalAlign=middle;resizable=0;points=[];autosize=1;strokeColor=none;fillColor=none;strokeWidth=3;fontStyle=1;fontSize=12;" parent="4" vertex="1">
                    <mxGeometry x="160" y="300" width="140" height="30" as="geometry"/>
                </mxCell>
                <mxCell id="20" value="Klik Tombol Simpan" style="rounded=1;whiteSpace=wrap;html=1;strokeWidth=3;fontStyle=1;fontSize=12;" parent="4" vertex="1">
                    <mxGeometry x="70" y="810" width="120" height="40" as="geometry"/>
                </mxCell>
                <mxCell id="21" style="edgeStyle=none;html=1;fontFamily=Helvetica;fontSize=12;fontColor=default;exitX=0.5;exitY=1;exitDx=0;exitDy=0;entryX=0.5;entryY=0;entryDx=0;entryDy=0;strokeWidth=3;fontStyle=1" parent="4" source="9" target="20" edge="1">
                    <mxGeometry relative="1" as="geometry">
                        <mxPoint x="120" y="700" as="sourcePoint"/>
                        <mxPoint x="120" y="810" as="targetPoint"/>
                    </mxGeometry>
                </mxCell>
                <mxCell id="22" value="" style="endArrow=classic;html=1;exitX=0.5;exitY=1;exitDx=0;exitDy=0;strokeWidth=3;fontStyle=1;fontSize=12;" parent="4" source="11" edge="1">
                    <mxGeometry width="50" height="50" relative="1" as="geometry">
                        <mxPoint x="395" y="460" as="sourcePoint"/>
                        <mxPoint x="160" y="389" as="targetPoint"/>
                    </mxGeometry>
                </mxCell>
                <mxCell id="23" value="[menu hapus kriteria]" style="text;html=1;align=center;verticalAlign=middle;resizable=0;points=[];autosize=1;strokeColor=none;fillColor=none;strokeWidth=3;fontStyle=1;fontSize=12;" parent="4" vertex="1">
                    <mxGeometry x="190" y="230" width="140" height="30" as="geometry"/>
                </mxCell>
                <mxCell id="24" style="edgeStyle=none;html=1;fontFamily=Helvetica;fontSize=12;fontColor=default;exitX=0.5;exitY=1;exitDx=0;exitDy=0;entryX=0.5;entryY=0;entryDx=0;entryDy=0;strokeWidth=3;fontStyle=1" parent="4" edge="1">
                    <mxGeometry relative="1" as="geometry">
                        <mxPoint x="159.41" y="410" as="sourcePoint"/>
                        <mxPoint x="159.41" y="480" as="targetPoint"/>
                    </mxGeometry>
                </mxCell>
                <mxCell id="25" value="SYSTEM" style="swimlane;swimlaneHead=0;swimlaneBody=0;fontStyle=1;strokeColor=inherit;connectable=0;fillColor=none;startSize=40;collapsible=0;recursiveResize=0;expand=0;align=center;verticalAlign=middle;fontFamily=Helvetica;fontSize=12;fontColor=default;strokeWidth=3;" parent="3" vertex="1">
                    <mxGeometry x="420" width="380" height="910" as="geometry">
                        <mxRectangle width="380" height="910" as="alternateBounds"/>
                    </mxGeometry>
                </mxCell>
                <mxCell id="26" value="" style="ellipse;whiteSpace=wrap;html=1;aspect=fixed;strokeColor=default;align=center;verticalAlign=middle;fontFamily=Helvetica;fontSize=12;fontColor=default;fillColor=light-dark(#464444, #ededed);strokeWidth=3;fontStyle=1" parent="25" vertex="1">
                    <mxGeometry x="225" y="840" width="25" height="25" as="geometry"/>
                </mxCell>
                <mxCell id="27" value="Menampilkan Data Menage Kriteria" style="rounded=1;whiteSpace=wrap;html=1;strokeColor=default;align=center;verticalAlign=middle;fontFamily=Helvetica;fontSize=12;fontColor=default;fillColor=none;strokeWidth=3;fontStyle=1" parent="25" vertex="1">
                    <mxGeometry x="100" y="120" width="200" height="80" as="geometry"/>
                </mxCell>
                <mxCell id="28" style="edgeStyle=none;html=1;strokeWidth=3;fontStyle=1;fontSize=12;" parent="25" source="29" edge="1">
                    <mxGeometry relative="1" as="geometry">
                        <mxPoint x="220" y="330" as="targetPoint"/>
                    </mxGeometry>
                </mxCell>
                <mxCell id="29" value="&lt;div&gt;&lt;div&gt;&lt;br&gt;&lt;/div&gt;&lt;/div&gt;" style="rhombus;whiteSpace=wrap;html=1;strokeColor=default;align=center;verticalAlign=middle;fontFamily=Helvetica;fontSize=12;fontColor=default;fillColor=default;strokeWidth=3;fontStyle=1" parent="25" vertex="1">
                    <mxGeometry x="180" y="330" width="80" height="70" as="geometry"/>
                </mxCell>
                <mxCell id="30" value="Menampilkan form manage kriteria" style="rounded=1;whiteSpace=wrap;html=1;strokeColor=default;align=center;verticalAlign=middle;fontFamily=Helvetica;fontSize=12;fontColor=default;fillColor=none;strokeWidth=3;fontStyle=1" parent="25" vertex="1">
                    <mxGeometry x="145" y="540" width="150" height="50" as="geometry"/>
                </mxCell>
                <mxCell id="31" value="" style="edgeStyle=elbowEdgeStyle;elbow=horizontal;endArrow=classic;html=1;curved=0;rounded=0;endSize=8;startSize=8;fontFamily=Helvetica;fontSize=12;fontColor=default;entryX=1;entryY=0.5;entryDx=0;entryDy=0;exitX=1;exitY=0.5;exitDx=0;exitDy=0;strokeWidth=3;fontStyle=1" parent="25" source="29" target="27" edge="1">
                    <mxGeometry width="50" height="50" relative="1" as="geometry">
                        <mxPoint x="300" y="440" as="sourcePoint"/>
                        <mxPoint x="350" y="390" as="targetPoint"/>
                        <Array as="points">
                            <mxPoint x="340" y="300"/>
                        </Array>
                    </mxGeometry>
                </mxCell>
                <mxCell id="32" style="edgeStyle=none;html=1;fontFamily=Helvetica;fontSize=12;fontColor=default;exitX=0.5;exitY=1;exitDx=0;exitDy=0;strokeWidth=3;fontStyle=1" parent="25" source="39" edge="1">
                    <mxGeometry relative="1" as="geometry">
                        <mxPoint x="237.08" y="750" as="sourcePoint"/>
                        <mxPoint x="238" y="840" as="targetPoint"/>
                    </mxGeometry>
                </mxCell>
                <mxCell id="33" value="Tidak" style="text;html=1;align=center;verticalAlign=middle;resizable=0;points=[];autosize=1;strokeColor=none;fillColor=none;fontFamily=Helvetica;fontSize=12;fontColor=default;strokeWidth=3;fontStyle=1" parent="25" vertex="1">
                    <mxGeometry x="250" y="340" width="50" height="30" as="geometry"/>
                </mxCell>
                <mxCell id="34" value="Menghapus data kriteria" style="rounded=1;whiteSpace=wrap;html=1;strokeColor=default;align=center;verticalAlign=middle;fontFamily=Helvetica;fontSize=12;fontColor=default;fillColor=none;strokeWidth=3;fontStyle=1" parent="25" vertex="1">
                    <mxGeometry x="150" y="430" width="150" height="50" as="geometry"/>
                </mxCell>
                <mxCell id="35" value="Menampilkan konfirmasi hapus" style="rounded=1;whiteSpace=wrap;html=1;strokeColor=default;align=center;verticalAlign=middle;fontFamily=Helvetica;fontSize=12;fontColor=default;fillColor=none;strokeWidth=3;fontStyle=1" parent="25" vertex="1">
                    <mxGeometry x="140" y="250" width="150" height="50" as="geometry"/>
                </mxCell>
                <mxCell id="36" value="" style="endArrow=classic;html=1;fontFamily=Helvetica;fontSize=12;fontColor=default;entryX=0.5;entryY=0;entryDx=0;entryDy=0;strokeWidth=3;fontStyle=1" parent="25" target="29" edge="1">
                    <mxGeometry width="50" height="50" relative="1" as="geometry">
                        <mxPoint x="220" y="300" as="sourcePoint"/>
                        <mxPoint x="219.5" y="407" as="targetPoint"/>
                    </mxGeometry>
                </mxCell>
                <mxCell id="37" value="" style="endArrow=classic;html=1;fontFamily=Helvetica;fontSize=12;fontColor=default;exitX=0.5;exitY=1;exitDx=0;exitDy=0;strokeWidth=3;fontStyle=1" parent="25" source="29" edge="1">
                    <mxGeometry width="50" height="50" relative="1" as="geometry">
                        <mxPoint x="230" y="310" as="sourcePoint"/>
                        <mxPoint x="220" y="430" as="targetPoint"/>
                    </mxGeometry>
                </mxCell>
                <mxCell id="39" value="Menyimpan dan menampilkan data kriteria" style="rounded=1;whiteSpace=wrap;html=1;strokeColor=default;align=center;verticalAlign=middle;fontFamily=Helvetica;fontSize=12;fontColor=default;fillColor=none;strokeWidth=3;fontStyle=1" parent="25" vertex="1">
                    <mxGeometry x="162.5" y="680" width="150" height="50" as="geometry"/>
                </mxCell>
                <mxCell id="43" value="Ya" style="text;html=1;align=center;verticalAlign=middle;resizable=0;points=[];autosize=1;strokeColor=none;fillColor=none;fontFamily=Helvetica;fontSize=12;fontColor=default;strokeWidth=3;fontStyle=1" parent="25" vertex="1">
                    <mxGeometry x="230" y="390" width="40" height="30" as="geometry"/>
                </mxCell>
                <mxCell id="47" value="" style="edgeStyle=elbowEdgeStyle;elbow=horizontal;endArrow=classic;html=1;curved=0;rounded=0;endSize=8;startSize=8;entryX=1;entryY=0.5;entryDx=0;entryDy=0;exitX=1;exitY=0.5;exitDx=0;exitDy=0;strokeWidth=3;fontStyle=1;fontSize=12;" edge="1" parent="25" source="34" target="39">
                    <mxGeometry width="50" height="50" relative="1" as="geometry">
                        <mxPoint x="-45" y="500" as="sourcePoint"/>
                        <mxPoint x="5" y="450" as="targetPoint"/>
                        <Array as="points">
                            <mxPoint x="355" y="580"/>
                        </Array>
                    </mxGeometry>
                </mxCell>
                <mxCell id="44" value="" style="edgeStyle=elbowEdgeStyle;elbow=vertical;endArrow=classic;html=1;curved=0;rounded=0;endSize=8;startSize=8;exitX=0.5;exitY=1;exitDx=0;exitDy=0;entryX=0.5;entryY=0;entryDx=0;entryDy=0;strokeWidth=3;fontStyle=1;fontSize=12;" edge="1" parent="3" source="27" target="11">
                    <mxGeometry width="50" height="50" relative="1" as="geometry">
                        <mxPoint x="375" y="300" as="sourcePoint"/>
                        <mxPoint x="425" y="250" as="targetPoint"/>
                    </mxGeometry>
                </mxCell>
                <mxCell id="45" value="" style="edgeStyle=elbowEdgeStyle;elbow=horizontal;endArrow=classic;html=1;curved=0;rounded=0;endSize=8;startSize=8;exitX=0.5;exitY=1;exitDx=0;exitDy=0;entryX=0;entryY=0.5;entryDx=0;entryDy=0;strokeWidth=3;fontStyle=1;fontSize=12;" edge="1" parent="3" source="14" target="30">
                    <mxGeometry width="50" height="50" relative="1" as="geometry">
                        <mxPoint x="375" y="500" as="sourcePoint"/>
                        <mxPoint x="425" y="450" as="targetPoint"/>
                        <Array as="points">
                            <mxPoint x="200" y="560"/>
                        </Array>
                    </mxGeometry>
                </mxCell>
                <mxCell id="48" value="" style="edgeStyle=elbowEdgeStyle;elbow=horizontal;endArrow=classic;html=1;curved=0;rounded=0;endSize=8;startSize=8;exitX=1;exitY=0.5;exitDx=0;exitDy=0;entryX=0;entryY=0.5;entryDx=0;entryDy=0;fontSize=12;strokeWidth=3;" edge="1" parent="3" source="20" target="39">
                    <mxGeometry width="50" height="50" relative="1" as="geometry">
                        <mxPoint x="375" y="800" as="sourcePoint"/>
                        <mxPoint x="425" y="750" as="targetPoint"/>
                    </mxGeometry>
                </mxCell>
                <mxCell id="50" value="" style="edgeStyle=elbowEdgeStyle;elbow=vertical;endArrow=classic;html=1;curved=0;rounded=0;endSize=8;startSize=8;exitX=0.5;exitY=1;exitDx=0;exitDy=0;entryX=0.5;entryY=0;entryDx=0;entryDy=0;fontSize=12;strokeWidth=3;" edge="1" parent="3" source="30" target="9">
                    <mxGeometry width="50" height="50" relative="1" as="geometry">
                        <mxPoint x="375" y="800" as="sourcePoint"/>
                        <mxPoint x="425" y="750" as="targetPoint"/>
                    </mxGeometry>
                </mxCell>
            </root>
        </mxGraphModel>
    </diagram>
</mxfile>